<svg xmlns="http://www.w3.org/2000/svg" xmlns:xlink="http://www.w3.org/1999/xlink" version="1.1" width="256" height="256" viewBox="0 0 256 256" xml:space="preserve">
<desc>Created with Fabric.js 1.7.22</desc>
<defs>
</defs>
<g transform="translate(128 128) scale(0.72 0.72)" style="">
	<g style="stroke: none; stroke-width: 0; stroke-dasharray: none; stroke-linecap: butt; stroke-linejoin: miter; stroke-miterlimit: 10; fill: none; fill-rule: nonzero; opacity: 1;" transform="translate(-175.05 -175.05000000000004) scale(3.89 3.89)" >
	<path d="M 69.381 55.4 H 20.619 c -1.657 0 -3 -1.343 -3 -3 s 1.343 -3 3 -3 h 48.762 c 1.657 0 3 1.343 3 3 S 71.038 55.4 69.381 55.4 z" style="stroke: none; stroke-width: 1; stroke-dasharray: none; stroke-linecap: butt; stroke-linejoin: miter; stroke-miterlimit: 10; fill: rgb(0,0,0); fill-rule: nonzero; opacity: 1;" transform=" matrix(1 0 0 1 0 0) " stroke-linecap="round" />
	<path d="M 69.381 41.083 H 20.619 c -1.657 0 -3 -1.343 -3 -3 s 1.343 -3 3 -3 h 48.762 c 1.657 0 3 1.343 3 3 S 71.038 41.083 69.381 41.083 z" style="stroke: none; stroke-width: 1; stroke-dasharray: none; stroke-linecap: butt; stroke-linejoin: miter; stroke-miterlimit: 10; fill: rgb(0,0,0); fill-rule: nonzero; opacity: 1;" transform=" matrix(1 0 0 1 0 0) " stroke-linecap="round" />
	<path d="M 24.893 86.074 c -0.768 0 -1.536 -0.293 -2.121 -0.879 L 13.5 75.924 h -3.57 C 4.454 75.924 0 71.47 0 65.994 V 24.489 c 0 -5.475 4.454 -9.929 9.929 -9.929 h 70.142 c 5.475 0 9.929 4.454 9.929 9.929 v 41.505 c 0 5.476 -4.454 9.93 -9.929 9.93 H 36.286 l -9.272 9.271 C 26.428 85.781 25.66 86.074 24.893 86.074 z M 9.929 20.56 C 7.763 20.56 6 22.322 6 24.489 v 41.505 c 0 2.167 1.763 3.93 3.929 3.93 h 4.813 c 0.795 0 1.559 0.316 2.121 0.879 l 8.029 8.029 l 8.029 -8.029 c 0.563 -0.563 1.326 -0.879 2.121 -0.879 h 45.028 c 2.166 0 3.929 -1.763 3.929 -3.93 V 24.489 c 0 -2.167 -1.763 -3.929 -3.929 -3.929 H 9.929 z" style="stroke: none; stroke-width: 1; stroke-dasharray: none; stroke-linecap: butt; stroke-linejoin: miter; stroke-miterlimit: 10; fill: rgb(0,0,0); fill-rule: nonzero; opacity: 1;" transform=" matrix(1 0 0 1 0 0) " stroke-linecap="round" />
</g>
</g>
</svg>