<svg xmlns="http://www.w3.org/2000/svg" xmlns:xlink="http://www.w3.org/1999/xlink" version="1.1" width="256" height="256" viewBox="0 0 256 256" xml:space="preserve">
<desc>Created with Fabric.js 1.7.22</desc>
<defs>
</defs>
<g transform="translate(128 128) scale(0.72 0.72)" style="">
	<g style="stroke: none; stroke-width: 0; stroke-dasharray: none; stroke-linecap: butt; stroke-linejoin: miter; stroke-miterlimit: 10; fill: none; fill-rule: nonzero; opacity: 1;" transform="translate(-175.05 -175.05000000000004) scale(3.89 3.89)" >
	<path d="M 69.315 90.026 C 55.681 90.028 38.46 79.081 24.689 65.311 C 6.015 46.638 -7.468 21.613 4.506 7.8 C 5.267 6.922 6.24 6.248 7.397 5.794 c 1.428 -0.56 4.015 -1.651 7.687 -3.244 l 0.008 -0.003 c 1.707 -0.74 3.346 -1.458 4.599 -2.009 c 2.946 -1.292 6.401 -0.181 8.045 2.587 l 10.407 17.539 c 1.134 1.91 1.186 4.313 0.135 6.271 L 32.043 38.55 L 51.45 57.957 l 11.613 -6.235 c 1.962 -1.052 4.364 -0.998 6.272 0.135 l 16.293 9.668 l 2.157 1.395 l 0 0 c 2.086 1.799 2.815 4.794 1.676 7.39 c -0.469 1.064 -1.057 2.406 -1.676 3.831 l 0.756 -1.735 l -1.127 2.589 c -1.548 3.571 -2.657 6.2 -3.21 7.61 c -0.453 1.156 -1.128 2.129 -2.004 2.89 C 78.574 88.638 74.171 90.026 69.315 90.026 z M 17.98 8.925 L 17.98 8.925 c -3.807 1.651 -6.508 2.791 -8.028 3.387 C 9.828 12.36 9.781 12.4 9.781 12.4 c -8.562 9.878 3.505 31.608 19.858 47.961 c 16.353 16.352 38.079 28.418 47.974 19.846 h -0.001 c -0.002 0 0.033 -0.049 0.076 -0.157 c 0.602 -1.534 1.741 -4.235 3.388 -8.031 l 1.745 -4.021 l -16.755 -9.942 l -11.711 6.287 c -2.5 1.341 -5.524 0.893 -7.527 -1.11 l -20.06 -20.06 c -2.004 -2.005 -2.451 -5.03 -1.11 -7.527 l 6.287 -11.711 L 21.997 7.171 C 20.843 7.678 19.438 8.292 17.98 8.925 z" style="stroke: none; stroke-width: 1; stroke-dasharray: none; stroke-linecap: butt; stroke-linejoin: miter; stroke-miterlimit: 10; fill: rgb(0,0,0); fill-rule: nonzero; opacity: 1;" transform=" matrix(1 0 0 1 0 0) " stroke-linecap="round" />
</g>
</g>
</svg>