<?xml version="1.0" standalone="no"?>
<!DOCTYPE svg PUBLIC "-//W3C//DTD SVG 20010904//EN"
 "http://www.w3.org/TR/2001/REC-SVG-20010904/DTD/svg10.dtd">
<svg version="1.0" xmlns="http://www.w3.org/2000/svg"
 width="1500.000000pt" height="1500.000000pt" viewBox="0 0 1500.000000 1500.000000"
 preserveAspectRatio="xMidYMid meet">
<metadata>
Created by potrace 1.14, written by Peter Selinger 2001-2017
</metadata>
<g transform="translate(0.000000,1500.000000) scale(0.100000,-0.100000)"
fill="#000000" stroke="none">
<path d="M6534 13521 c-48 -8 -91 -37 -134 -91 -17 -21 -47 -49 -68 -61 -68
-42 -217 -156 -273 -211 -30 -29 -69 -78 -86 -108 -19 -33 -50 -68 -76 -86
-24 -17 -70 -67 -103 -110 -32 -43 -89 -110 -125 -149 -37 -39 -78 -89 -92
-111 -14 -21 -48 -66 -77 -99 -28 -33 -72 -91 -97 -130 -26 -38 -63 -95 -84
-125 -20 -30 -44 -71 -54 -90 -10 -19 -41 -62 -70 -95 -29 -33 -65 -85 -80
-115 -15 -30 -47 -83 -71 -118 -23 -34 -48 -79 -55 -100 -7 -20 -24 -53 -39
-72 -31 -39 -50 -89 -50 -130 0 -15 -12 -45 -26 -66 -39 -56 -53 -94 -64 -171
-5 -38 -21 -109 -36 -158 -14 -50 -30 -112 -34 -140 -5 -27 -18 -90 -29 -138
-20 -81 -22 -122 -24 -512 -2 -340 -6 -426 -17 -439 -7 -10 -37 -28 -67 -42
-81 -39 -142 -116 -283 -361 -26 -47 -44 -93 -50 -130 -26 -170 -30 -219 -29
-333 2 -139 -3 -166 -32 -175 -10 -4 -63 -1 -117 6 -68 8 -183 10 -388 6 -307
-7 -411 0 -543 34 -88 23 -191 25 -230 5 -43 -23 -108 -100 -120 -142 -15 -55
-14 -114 5 -208 14 -67 15 -93 5 -161 -6 -44 -13 -98 -15 -120 -3 -22 -9 -52
-15 -67 -13 -35 -16 -316 -5 -597 5 -131 5 -288 0 -380 -6 -108 -6 -190 2
-266 12 -117 16 -488 6 -593 -4 -36 -1 -89 6 -125 16 -78 21 -862 8 -1092 -5
-88 -14 -281 -19 -430 -17 -460 -24 -579 -37 -608 -21 -48 -15 -156 11 -202
46 -80 149 -129 235 -111 15 4 55 0 87 -9 61 -16 156 -13 247 7 39 8 74 5 195
-16 81 -15 168 -31 192 -37 86 -20 190 -31 376 -39 139 -6 225 -15 320 -35
183 -37 395 -48 950 -52 1657 -9 1841 -13 1982 -45 96 -21 155 -21 398 -2 55
5 163 8 240 7 77 -2 310 -4 518 -5 l378 -3 -7 -75 c-11 -128 12 -323 51 -435
47 -133 75 -175 119 -175 37 0 50 9 174 117 103 90 188 139 208 122 21 -18 17
-39 -25 -131 -22 -46 -53 -123 -70 -171 -17 -48 -37 -99 -45 -114 -7 -16 -28
-71 -45 -123 -18 -52 -41 -109 -52 -126 -36 -58 -69 -180 -69 -253 0 -85 5
-98 42 -117 51 -26 90 -11 181 70 93 82 258 214 373 299 44 32 102 76 129 97
88 70 103 50 89 -109 -4 -53 -8 -142 -9 -197 0 -157 10 -162 212 -119 65 14
163 34 217 46 55 11 152 37 215 58 64 21 181 60 261 86 80 26 170 59 200 72
30 14 98 40 150 59 52 19 113 45 135 58 22 13 58 29 80 35 22 7 54 18 70 26
86 37 108 45 128 45 12 0 54 12 92 26 39 14 92 30 118 34 26 5 110 28 185 51
75 23 177 52 227 65 112 29 165 51 289 122 106 60 212 155 245 221 24 46 60
183 72 271 5 36 16 115 25 175 14 90 25 189 35 305 1 8 8 71 16 140 7 69 18
244 23 390 5 146 14 330 20 409 7 101 7 163 -1 210 -6 36 -12 129 -14 206 -4
142 -10 196 -25 250 -5 17 -17 77 -26 135 -18 114 -51 224 -88 298 -13 26 -27
67 -31 92 -4 25 -34 101 -67 169 -53 111 -68 132 -146 211 -90 92 -197 168
-292 209 -30 13 -73 32 -95 42 -22 10 -64 27 -93 38 -103 41 -151 70 -158 97
-7 26 1 441 14 779 6 169 8 624 3 924 -2 154 -11 182 -73 236 -48 40 -120 60
-192 52 -28 -3 -85 -2 -126 4 -41 5 -145 13 -230 19 -85 5 -231 14 -323 21
-146 10 -183 9 -285 -6 -99 -14 -159 -16 -387 -10 -221 6 -300 4 -433 -10 -90
-9 -171 -14 -180 -10 -9 3 -89 5 -177 4 -88 -1 -184 -1 -214 0 -30 1 -76 -3
-103 -10 -71 -17 -81 -1 -34 51 21 23 46 62 57 87 11 25 41 70 68 99 32 34 51
66 55 90 4 20 27 78 52 128 24 50 80 190 123 311 44 121 97 265 120 320 45
112 76 223 87 311 4 32 19 88 35 124 15 36 32 99 38 141 6 41 31 136 57 210
85 246 124 371 124 398 0 39 34 222 64 341 33 132 49 287 37 360 -8 47 -6 61
12 95 16 30 21 58 21 112 0 64 -3 77 -30 115 -16 24 -62 65 -104 93 l-75 50
-100 0 -100 0 -165 -77 c-91 -42 -183 -86 -205 -97 -21 -12 -44 -21 -51 -21
-6 0 -42 -23 -80 -50 -58 -43 -141 -80 -177 -80 -5 0 -31 -16 -57 -35 -26 -19
-74 -43 -106 -53 -75 -23 -184 -87 -265 -154 -183 -152 -353 -337 -516 -559
-11 -16 -48 -60 -81 -97 -33 -37 -82 -103 -108 -148 -46 -75 -107 -153 -246
-312 -32 -37 -58 -71 -58 -77 0 -7 -17 -36 -39 -66 -21 -30 -46 -70 -56 -89
-24 -47 -18 -44 -93 -51 -51 -5 -110 1 -242 24 -96 16 -179 32 -183 37 -4 4 3
41 17 82 28 83 49 193 71 373 8 66 20 163 27 215 10 81 17 223 19 410 1 87
-18 367 -26 380 -10 16 -24 131 -34 275 -4 64 -19 154 -35 213 -26 100 -26
107 -17 245 9 129 8 150 -10 227 -11 47 -24 121 -29 165 -7 73 -22 122 -82
270 -11 28 -24 74 -28 104 -12 77 -81 187 -140 222 -49 29 -111 40 -176 30z"/>
</g>
</svg>
